<svg viewBox="0 0 1024 1024" xmlns="http://www.w3.org/2000/svg"><title>logo</title><defs><linearGradient x1="14.7481343%" y1="14.3469313%" x2="83.452255%" y2="85.9150196%" id="a"><stop stop-color="#FFE211" offset="0%"/><stop stop-color="#FFC107" offset="100%"/></linearGradient></defs><g fill="none" fill-rule="evenodd"><circle fill="url(#a)" cx="512" cy="512" r="512"/><path d="M570.921712 193c-131.348254-6.316909-170.339856 80.508675-181.457858 155.384338-16.32836 109.965516 61.272194 202.704045 49.390548 343.061575-6.444219 76.12538-36.588134 129.171786-90.431744 159.139218 63.092126-14.108844 104.104932-59.120198 123.038418-135.034061 40.008089-160.41254-50.758342-250.912035-42.273003-367.166732C433.123033 294.472806 439.970346 206.528766 570.921712 193z" fill="#FF5722"/><path d="M753.250221 192.991987c-131.348253-6.316909-175.103181 69.382263-173.907418 152.989192 1.401813 98.01379 58.388769 145.834449 79.232085 227.206362 25.3344 98.905018-2.474001 232.186807-208.047025 225.360587-152.95055-5.078847-174.519296-156.25718-171.708637-196.053787 6.848369-96.967205 43.009695-158.348228 157.615022-197.094589 38.227154-12.924033 60.536672-19.766851 66.928554-20.528453-24.098892 2.131689-52.299043 7.227301-84.600452 15.286836-48.452114 12.089302-163.457889 58.127168-171.874694 202.336206-8.38416 143.649722 70.510924 218.007821 185.922101 235.359486C654.179106 871.13593 747.060118 719.837623 701.915031 562.47573c-20.589862-71.769931-86.568105-135.070779-87.351715-222.452492-.492898-54.964011 7.735539-133.502485 138.686905-147.031251z" fill="#FF5722"/></g></svg>